/* XPM */
static char *result[] = {
/* columns rows colors chars-per-pixel */
"64 64 245 2 ",
"   c #4B3D14",
".  c #483C14",
"X  c #543F12",
"o  c #4D4116",
"O  c #4D4419",
"+  c #4F481B",
"@  c #524416",
"#  c #5A4514",
"$  c #5C4916",
"%  c #514619",
"&  c #544A1A",
"*  c #5A4D1A",
"=  c #554817",
"-  c #5D521C",
";  c #634B15",
":  c #6A4D14",
">  c #624E19",
",  c #654914",
"<  c #6D5116",
"1  c #63541C",
"2  c #6B541A",
"3  c #65591F",
"4  c #6C5B1D",
"5  c #655117",
"6  c #735316",
"7  c #74561A",
"8  c #745B1B",
"9  c #7A5C1B",
"0  c #7B5514",
"q  c #704911",
"w  c #74611E",
"e  c #7C621D",
"r  c #5C4E23",
"t  c #5E5323",
"y  c #625523",
"u  c #655A21",
"i  c #6B5C22",
"p  c #66592B",
"a  c #715E23",
"s  c #745D26",
"d  c #675A32",
"f  c #725F32",
"g  c #6D6122",
"h  c #6F622C",
"j  c #736423",
"k  c #7B6522",
"l  c #766926",
"z  c #7C6B25",
"x  c #73642B",
"c  c #75692B",
"v  c #7B6C2A",
"b  c #7E722B",
"n  c #7F7126",
"m  c #7C6C3A",
"M  c #776A34",
"N  c #7D7239",
"B  c #6E6536",
"V  c #7C6E43",
"C  c #855C17",
"Z  c #82641C",
"A  c #8C641A",
"S  c #88691D",
"D  c #96691A",
"F  c #9E771E",
"G  c #A8781D",
"H  c #B07B1A",
"J  c #846C23",
"K  c #8A6D22",
"L  c #826D2A",
"P  c #856824",
"I  c #926E22",
"U  c #847226",
"Y  c #8C7324",
"T  c #83732B",
"R  c #8B752A",
"E  c #8B7B2C",
"W  c #867A2B",
"Q  c #937424",
"!  c #937B2C",
"~  c #9A7D2B",
"^  c #997724",
"/  c #8B7C32",
"(  c #877938",
")  c #957D33",
"_  c #806E39",
"`  c #A57A23",
"'  c #AB7E24",
"]  c #A47723",
"[  c #8C7B46",
"{  c #877446",
"}  c #B7821E",
"|  c #99822D",
" . c #8E8131",
".. c #948334",
"X. c #9B8332",
"o. c #988839",
"O. c #9B923C",
"+. c #A2842C",
"@. c #AD8329",
"#. c #A98829",
"$. c #B28424",
"%. c #BC8A24",
"&. c #B48A2B",
"*. c #BC8E2A",
"=. c #B68725",
"-. c #BC922D",
";. c #BC9629",
":. c #A48A34",
">. c #A68936",
",. c #B48E32",
"<. c #A99639",
"1. c #B39334",
"2. c #BB9532",
"3. c #BD9A34",
"4. c #B59A3B",
"5. c #AE912F",
"6. c #B9A43C",
"7. c #C18E25",
"8. c #C3952B",
"9. c #C59B2A",
"0. c #C89A28",
"q. c #C39C33",
"w. c #C59B36",
"e. c #CBA22D",
"r. c #C5A02E",
"t. c #D3A62D",
"y. c #D7AB2D",
"u. c #C5A235",
"i. c #CCA434",
"p. c #CEA936",
"a. c #C5A43A",
"s. c #C9A53A",
"d. c #CDAB3B",
"f. c #D1A633",
"g. c #D3AB34",
"h. c #D9AD34",
"j. c #D2AD3A",
"k. c #D0A73D",
"l. c #DBB235",
"z. c #D4B13B",
"x. c #DAB53A",
"c. c #DDBA3D",
"v. c #D5B037",
"b. c #CDB13F",
"n. c #E1B533",
"m. c #E4BA35",
"M. c #E2BB3B",
"N. c #EABD36",
"B. c #E0B12E",
"V. c #ECC43B",
"C. c #EECC3C",
"Z. c #E8C239",
"A. c #F1C93B",
"S. c #EED13F",
"D. c #F4D43D",
"F. c #FDE33F",
"G. c #998A42",
"H. c #9D9244",
"J. c #928948",
"K. c #A79946",
"L. c #B59B47",
"P. c #A08B44",
"I. c #ACA14A",
"U. c #B6A446",
"Y. c #B6A957",
"T. c #BBB04B",
"R. c #938F6B",
"E. c #ABA763",
"W. c #CDAC42",
"Q. c #C5AB43",
"!. c #D8AD42",
"~. c #CEB243",
"^. c #C8B74B",
"/. c #D3B544",
"(. c #D9B542",
"). c #DCBB44",
"_. c #D6BC4B",
"`. c #DBBC4B",
"'. c #D5B647",
"]. c #C5B659",
"[. c #D5BB52",
"{. c #C2AA53",
"}. c #E2BE46",
"|. c #C3B76D",
" X c #DCC347",
".X c #DAC857",
"XX c #CFC65D",
"oX c #E4C343",
"OX c #EAC643",
"+X c #EBCB44",
"@X c #E4C44C",
"#X c #E5CA4A",
"$X c #ECCC4A",
"%X c #E7C847",
"&X c #EED344",
"*X c #EDD34C",
"=X c #F2D544",
"-X c #F4D944",
";X c #F2D64A",
":X c #F4DA4C",
">X c #F9DD4A",
",X c #E7C951",
"<X c #E7C955",
"1X c #EDD354",
"2X c #ECD55C",
"3X c #E7D75A",
"4X c #F2DA54",
"5X c #F3DC5B",
"6X c #F5D755",
"7X c #F0CB41",
"8X c #FDE54D",
"9X c #FEEA4C",
"0X c #FBE347",
"qX c #FCE454",
"wX c #FCEA54",
"eX c #F5E25C",
"rX c #F9E65D",
"tX c #FDEB5C",
"yX c #F7E651",
"uX c #FFF555",
"iX c #FFF45C",
"pX c #FFF958",
"aX c #D4CD65",
"sX c #EDDB64",
"dX c #E7DA69",
"fX c #F3DC62",
"gX c #F4DD6B",
"hX c #E6D76E",
"jX c #F6E265",
"kX c #FAE664",
"lX c #FCEB63",
"zX c #F6E46A",
"xX c #F9E56A",
"cX c #FCEB6B",
"vX c #F6EA62",
"bX c #FEF364",
"nX c #FFF66A",
"mX c #FCEC71",
"MX c #F6E472",
"NX c #FFFC75",
"BX c #FFF976",
"VX c #EBE07B",
"CX c #E5D88C",
"ZX c #FCF687",
"AX c None",
/* pixels */
"AXAXAXAXAXAXAXAXAXAXAXAXAXAXAXAXAXAXAXAXAXAXAXAXAXAXAX8 j j j a j j i a a AXAXAXAXAXAXAXAXAXAXAXAXAXAXAXAXAXAXAXAXAXAXAXAXAXAXAX",
"AXAXAXAXAXAXAXAXAXAXAXAXAXAXAXAXAXAXAXAXAXAXAX8 l z n b / o.H.<.K.H.G.[ N b c x j AXAXAXAXAXAXAXAXAXAXAXAXAXAXAXAXAXAXAXAXAXAXAX",
"AXAXAXAXAXAXAXAXAXAXAXAXAXAXAXAXAXAXAXAXe w n  .<.a.b.oX:X$XOXV.OXOX+X6X,X`.{.I.[ M x a AXAXAXAXAXAXAXAXAXAXAXAXAXAXAXAXAXAXAXAX",
"AXAXAXAXAXAXAXAXAXAXAXAXAXAXAXAXAXAXe n  .<.r.B.C.qXwXwXtXlXrXtXtXtXtXwXtXlXkXfX@X'.Y.[ M j AXAXAXAXAXAXAXAXAXAXAXAXAXAXAXAXAXAX",
"AXAXAXAXAXAXAXAXAXAXAXAXAXAXAXAXS U  .;.M.=X>X8XwXwXtXlXnXlXtXlXtX9XuX9X9XwXbXbXcXcXgXgX{.J.m i AXAXAXAXAXAXAXAXAXAXAXAXAXAXAXAX",
"AXAXAXAXAXAXAXAXAXAXAXAXAXAXK U Y 3.C.D.9X9X8XqXtXtX%X1XnX@X}.bX*X*X8X0XOXiXwXlXcXcXmXmXgX<X].J.M i AXAXAXAXAXAXAXAXAXAXAXAXAXAX",
"AXAXAXAXAXAXAXAXAXAXAXAXAXU U | 0.D.0X9X9XwX*XvX#XcX}.1XbX#X`.cX,X;XwX4X1XtX#X1XcXxXxXcXcXMXMX`.Y.N i AXAXAXAXAXAXAXAXAXAXAXAXAX",
"AXAXAXAXAXAXAXAXAXAXAXAXW S 9.B.F.0X9X>XM.4XwX,X,XbX@X%XcXeX5XcX6X+XrX$X5X5XsX@XcX,X<X2XxXzXcXxX@X[.J.f AXAXAXAXAXAXAXAXAXAXAXAX",
"AXAXAXAXAXAXAXAXAXAX) T Q 9.D.F.0X0X9X XwX#XrX2X#XbXtXpXiX3X.X X.X.X3XlXlXlX4X1XlX@X X<XxXxXcXxXxXzX2XK.M p AXAXAXAXAXAXAXAXAXAX",
"AXAXAXAXAXAXAXAXAX) L Y i.A.D.F.&Xl.:X:X).z.vXwX5X^.O.U g n l n R W U l  .<.XXbXlXjX).xXvXxXxXxXxXxXgX2XY.m y AXAXAXAXAXAXAXAXAX",
"AXAXAXAXAXAXAXAXo.v K g.A.D.-X0XyXg.d.wXrXtXXX .g n | +.n Q Y Y S Y ~ R ! ! E n <.3XxXcXxXxXxXxXxXkXcXmXxXY.N t AXAXAXAXAXAXAXAX",
"AXAXAXAXAXAXAX) _ P *.Z.A.=X>X0XyX&Xz.wX^.n 1 S e e w j w j g w j g w l e l U Q <.E ..3XxXcXxXsX(.<XcXbXmXsXY.m AXAXAXAXAXAXAXAX",
"AXAXAXAXAXAXAX( z $.c.+X=X>X;X>XyXqX*X .- 8 K 4 g 3 g g g g g W g g v k j j j l J | :.v U.zXxX,X}.xXmXcXnXNXsXE.V AXAXAXAXAXAXAX",
"AXAXAXAXAXAX[ c 4.).+XoXx.;X;X>X8X^.u 8 K 3 3 3 3 3 U T e 6.g #.W w 1.v ~  .W j l z z ! .. .dXmX<XmX}.fXBXNXBXVXR.d AXAXAXAXAXAX",
"AXAXAXAXAX[ x ~ /.c.%X9.z.:X;X6X6.t C e y 1 3 3 S ..8 +.g w  .g ! W g #.1.Z <.1.U v z n Y :.T .XmX<XzX2XfXBXNXZXCXR.t AXAXAXAXAX",
"AXAXAXAXAXN U a.). Xc.*X#X).*X:.& 8 1 - t - 8 <.1 R l 4 | g z  .i R W 8 | n X.+.@.<...T T W >./ aXMX}.2XBXMXNXZXZX|.V AXAXAXAXAX",
"AXAXAXAX[ s w.'. Xp.u.+X*X*X<.* e 1 - * - 1.- k n 1  .w 3 | g z ..g R W ! b X.:.) ) Q.( ( T L L.) aXmXgX!.fXMXNXNXmXH.d AXAXAXAX",
"AXAXAXAXm I '.'./. X X3.#X6.& 2 u * * 9 T y  .- w n 5  .n 3 | w z X.j R <.c >.<.P.) {.P.o./ L T <.T fXgX2X,XxXNXNXNX[.N AXAXAXAX",
"AXAXAX{ i 2././.d.u. X#X Xt 4 - & & L * R i 1 E 5 w w 0 U n e | U R R U ~ c ~ >.>.L.<XCX!.L.T v T ..o.cXfXmXjX2XNXnX*XK.d AXAXAX",
"AXAXAXm Q j.).z.p.#Xp..XW 1 e - & & S l & U 3 1 w +.e.B.Z.B.0.} %.} l.OX$X1XXXP.,.{.].CX[.,.U.c v R ..{.xX2X,XzXcXbXuX^.c AXAXAX",
"AXAX[ i s./.}.)./.s.c.6.% S r % $ :.& j j & U 2 } N.Z.N.Z.#.4 g 3 U A h.+X-X=XxX].[ P.L.Y.X.~ >.c v X.L sXsX,X/.eXbXbXwX..t AXAX",
"AXAXm P '.'.z.s.).#X#Xg - 3 + % 3 1 T & w j $ } N.A.A.Z.c.4 w e 3 4 ! ] 7X>X>X>XgXL.L.[ / ) ~ ) v l v o.K.cXcXcXxXcXtXwXU.g AXAX",
"AXG.x +._.`.a. X/.(.U.% 8 * % $ | * - T & 5 A n.Z.A.Z.m.5.- - 5 ..v u C x.;X>X>X;XVXR P./ L 4.F <.c v >.( zXjX(.0.eXlXiX Xl AXAX",
"AX[ j W.'.@X`.a.u. Xn 1 - r & v & W * 1 U : 9.m.A.A.Z.Z.S e Z 0 T.R v 4 %.7X>X;X>X2XY.L | ! ! F +./ c K K.Q.cXfX(.1XtXtXyX..t AX",
"AX( s `._.'.'.W.@X_.& 4 % r + L u % E * * A l.m.V.N.n.s.1 1 1 H 3Xb U n A OX-X:X:X&XVXc z l l l Z X.j v X./ xX,Xz.,XrXtXwX4.t AX",
"AXM I `._.W.3.3._.<.% i & + U + z u & W , *.l.M.Z.N.M.R 6 9 A m.Z.dXu k 9 i.=X:X:X;X3XI.K Y Y Q K | j c E c 3XvXjXrXlXtXwXW.1 AX",
"AXx ) [.[.`.Q.a.`.T 2 j O % k j % z u % C g.c.c.M.n.(.4 7 C y.V.Z.+XXXz L ] =X:X4X*X&XhXK Y F Y Q $./ j z ) ^.jX5X<XcXrXwX Xg AX",
"X.s U.`.[.~._._._.y P & O O % i h % z * $.v.c.c.x.j.5.4 F y.N.V.C.C.oX3X..C c.;X:X*X&XsXG.Y Y Q Q K O.g c ~ <.rX(.h.eXtXtX*XT t ",
") x W.'.[.1.2.3._.% s * O > & u i j O 6 f.x.c.c.x.M.4 0 $.n.V.A.+XA.V.y.#.a *.=X*X;X&XoXaXg 4 g g e ! g l R  .rXkXoXrXlXtXqX..- ",
") s W.'. X_._._.Q.O i & O 7 8 9 - 4 2 ` g.x.x.x.g.w.j & q 9.M.V.A.A.B.| 4 z C &X-X;X-X&XsX| Y K K K | g l X.n lXrXkXrXrXrX7X<.t ",
"/ s W.'.Q.2.,./.U.O j % O Q 2 < Q O : q.h.x.x.l.j.J 1 T & 0 h.m.N.m.9.8 Z Z Q f.S.-X-X&X+XT.S Y D K 3.g l >.j lX4X1X1XrXrX*X<.t ",
"R L /./.4.2.w.a.4.O j % O P 4 2 2 * D f.v.x.x.g.j.k j 1 U * ` n.m.x.e w U l 1 G S.&X;X&XS.VXl W W g | g j :.j lX4Xj.i.eXrXwX<.u ",
"R a !././.W.Q.~.L.. i % O 7 @ @ @ , *.p.v.v.x.g.+.$ - = 3 z < f.h.,.- 4 : 4 8 0 c.&X=X&X&X*XI.S l S Q g j ! j lX).v.).5XrX>X<.p ",
"/ 2 './././././.4.. s % . 0 s 2 1 C u.b.z.j.g.j.4 8 9 9 8 e > H x.4 $ Q e e 2 5 *.C.&X-X&X&XhXg e e g g e W j tXrXlXrXjXrXoXI.p ",
"R y d././.4.)./.Q.. P %   s s 7 $ ' u.v.z.j.i.3.5 8 < 8 8 6 8 C u.2 9 e J - - 8 A C.&X-X-X=X2Xo.e w n g j | T vXoX).@XeXwX%X<.t ",
") s a.b.W.D q.~.~.  P %   @ s % q 3.s.j.d.g.f.R z O O 5 3 2 g : +.- = < 4 * 0 3 6 l.D.-X-X-XC.XXi A ..g g | ..rX@X@X,XrXvX*X..t ",
"..p 3.d.W.d.3.b.W.y 8 %   X y , ] 3.p.d.j.i.j.2 8 O < > 1 : 4 > e - 5 8 - * J g 1 =.C.-X-XD.D.3XW e g g g W 6.rXrXlX5XlXtXqX/ r ",
"AXs +.d.d.d.s.d.j.U   i O   I , ;.u.p.d.p.q.1.% O : $ O % + $ w - 5 < = A z * U 3 A V.D.-XF.-XS.T.3 g g Y n ^.5XrXrXeXtXtX Xc AX",
"AXx K s.d.w.@.@.d.:.  s @ . X C 9.i.u.p.i.i.v O : $ $ R % $ 6 = 5 5 = 8 S w | = U e e.C.S.-XD.C.dXu u g #.j yXeX%X).4XtXwX~.h AX",
"AXm P a.d.,.s.' 2.s.@ 7 $   X G 8.u.9.r.9.i.% : & % < * * < % > 4 - 3 * = = 5 w * 4 H Z.C.S.D.A.#XH.u e +. .wXiXrX4XtXvXtX6.g AX",
"AX{ > q.a.s.' 1.d.d.k . 2 % q D D F D D D ~ : * @ < % $ 2 = O J 1 ; K w 0 w e S - = C } %.;.%.7.%.^.g Z l ^.4X#X*XtXtXbX:XO.y AX",
"AXAXf ] w.s.s.u.] s.1.. 9 &     $   $ @ @ : $ @ 6 % $ 2 + 6 W % U - = e 8 w 9 9 e w * 4 g 5 S n 1 4 4 W l wXwX*X1X4XiXiXx.b AXAX",
"AXAXm 9 u.s.w.^ @.-.u.w X L @     C *   , * @ < % % 2 % J @ e 4 * Y - $ Q 4 4 g & l e - Y g < Y 1 1 K w T.uX/.#XoXtXbX*X6.p AXAX",
"AXAX{ > w.u.w.$.&.2.a.1.  9 1     , @ , @ % : % % : o & 8 j % k 4 = U - = 5 2 4 n - e l $ |  .- 3 4 e n wXwXiX#XrXiXiX&XO.d AXAX",
"AXAXAXf I w.w.q.u.@.@.s.J   8 @     6 y   < X @ : O # +.@ 4 j @ l 4 & K - $ >.$ g n * e | 1 5 - 3 Y 1  X*Xx.4XpXpXiXpX XM AXAXAX",
"AXAXAXV : w.q.q.@.' &.-.w.1 X s X     X I   X : o * O = z % 4 j @ z u @ R - > R = 5 U - S - - 5 D 4 <.9XC.pX XpXnXpX1XH.t AXAXAX",
"AXAXAXAXf I q.3.-.^ @.q.u.3.@ X a X .   X : a . # , P O > v @ 4 j = k y % R * * E - 0 U * - 5 e g W 9XyXyX Xv.pXpXpX^.V AXAXAXAX",
"AXAXAXAX{ y 2.3.q.q.q.q.3.p.5.X @ 2 @ . . X X Z > o @ P @ > z @ 2 i & k 1 % R 1 5 | = = = - 5 5 g -XyXc.wXpXpXuXpXeXH.d AXAXAXAX",
"AXAXAXAXAXm 7 w.q.w.q.&.] &.i.#.o # S $ o o . # o o o o P o $ k @ 2 g % e l = ^ % % % = > e 1 j &XyXc.v.x.wXpXuXoXT.B AXAXAXAXAX",
"AXAXAXAXAXm f I q.q.q.@.-.G e.e.;.= o C # o o o o o   o @ F & > ~ = 8 Q @ Z = @ O = = > : $ l %X:X*XwXc.M.uXuX:Xd. .d AXAXAXAXAX",
"AXAXAXAXAXAX_ 4 ,.q.w.-.G 9.e.$.e.;.5 . # 6 # o         . X   o , @ = @ @ @ @ O = > 0 2 = | 7XM.}.d.>XwXwXwXpXc.G.p AXAXAXAXAXAX",
"AXAXAXAXAXAXAX_ 8 &.w.q.8.9.8.G e.0.e.Q o   : : : o o o       o o o o @ @ @ = ; , < @ 4 6.#X$X$XOX(.oX8X8XwX*XI.h AXAXAXAXAXAXAX",
"AXAXAXAXAXAXAXAX_ 7 2.8.8.0.G 0.} $.;.e.;.S o . # C Z 0 # @ @ o @ @ $ < , 6 : = o 5 #.c.oXOXOX$X$X}.6X5XwX$X4.h AXAXAXAXAXAXAXAX",
"AXAXAXAXAXAXAXAX7 M Z 8.9.9.e.e.} r.$.r.;.e.;.| :       @ : 6 ; , 0 q $   o @ e 5.c.c.d.N.OX+X$X$X6X6X6X$XU.M d AXAXAXAXAXAXAXAX",
"AXAXAXAXAXAXAXAXAXi v 6 8.0.e.e.;.H 0.;.} ;.p.y.y.r.| U < * o o o = 5 g W 5.v.z.v.p.9.&.}.}.7X}.$X6X6Xf.6.M p AXAXAXAXAXAXAXAXAX",
"AXAXAXAXAXAXAXAXAXAX< v 6 %.0.t.e.t.t.;.9.$.e.g.t.y.l.v.v.t.p.v.v.v.v.p.d.d.z.=.q.c.i.3.}.}.OX$X$XOX7.>.x f AXAXAXAXAXAXAXAXAXAX",
"AXAXAXAXAXAXAXAXAXAXAXAXP 9 ` t.t.t.g.r.} ;.i.t.y.g.h.h.8.i.8.j.$.-.v.-.p.q.x.u.2.`.}.k.z.}.@X$X@Xw./ a AXAXAXAXAXAXAXAXAXAXAXAX",
"AXAXAXAXAXAXAXAXAXAXAXAXAX8 e S %.e.t.g.i.t.p.t.y.f.f.g.$.*.*.g.;.&.v.-.-.2.x.q.!.W.(.}.}.}.!.w.,.v p AXAXAXAXAXAXAXAXAXAXAXAXAX",
"AXAXAXAXAXAXAXAXAXAXAXAXAXAX, e e G 8.h.t.t.p.i.i.y.g.f.' 8.8.g.-.&.j.q.&.-.(.(.!.!.!.}.!.W.,.R s d AXAXAXAXAXAXAXAXAXAXAXAXAXAX",
"AXAXAXAXAXAXAXAXAXAXAXAXAXAXAXAX< w 8 D -.e.t.i.y.g.h.f.h.j.i.j.h.p.s.p.d.k.}.'.[.[.w.' ] R s y AXAXAXAXAXAXAXAXAXAXAXAXAXAXAXAX",
"AXAXAXAXAXAXAXAXAXAXAXAXAXAXAXAXAXAX> 8 w D ' 8.f.y.l.y.h.h.f.h.l.j.s.!.d.!.(.!.2.4.) P a p AXAXAXAXAXAXAXAXAXAXAXAXAXAXAXAXAXAX",
"AXAXAXAXAXAXAXAXAXAXAXAXAXAXAXAXAXAXAXAX$ 2 8 e K #.G %.8.f.0.k.k.w.&.' ] 2.>.! L a i p AXAXAXAXAXAXAXAXAXAXAXAXAXAXAXAXAXAXAXAX",
"AXAXAXAXAXAXAXAXAXAXAXAXAXAXAXAXAXAXAXAXAXAXAX# > 4 8 k P R K P P I P v c a i y y AXAXAXAXAXAXAXAXAXAXAXAXAXAXAXAXAXAXAXAXAXAXAX",
"AXAXAXAXAXAXAXAXAXAXAXAXAXAXAXAXAXAXAXAXAXAXAXAXAXAXAX@ # r y r y r y r * AXAXAXAXAXAXAXAXAXAXAXAXAXAXAXAXAXAXAXAXAXAXAXAXAXAXAX"
};
