/* XPM */
static char *result[] = {
/* columns rows colors chars-per-pixel */
"64 64 211 2 ",
"   c #6A5B25",
".  c #695B2E",
"X  c #65582B",
"o  c #705E24",
"O  c #6C5E30",
"+  c #6E6032",
"@  c #746125",
"#  c #8B722C",
"$  c #93752A",
"%  c #887535",
"&  c #A07F30",
"*  c #AA872E",
"=  c #AC8D2F",
"-  c #A7852E",
";  c #B58C2C",
":  c #B98F2D",
">  c #BA902F",
",  c #A98631",
"<  c #AC8931",
"1  c #B58D31",
"2  c #AD9038",
"3  c #BD9332",
"4  c #B2963B",
"5  c #B89836",
"6  c #BEA13C",
"7  c #C39B3B",
"8  c #CEA52F",
"9  c #DCAD2E",
"0  c #D4A82F",
"q  c #C4A237",
"w  c #CFAA37",
"e  c #C2A239",
"r  c #CCA839",
"t  c #D1A731",
"y  c #D4AB34",
"u  c #DBAE31",
"i  c #D4AB3C",
"p  c #D8AF3F",
"a  c #DFB333",
"s  c #DCB43B",
"d  c #DBB53D",
"f  c #E4B432",
"g  c #E5B936",
"h  c #EBBB36",
"j  c #E0B73B",
"k  c #E3BC3E",
"l  c #EABE3B",
"z  c #F0BF38",
"x  c #E6C03E",
"c  c #EDC23D",
"v  c #EBC93E",
"b  c #F3C53C",
"n  c #F6CA3D",
"m  c #FCCB3E",
"M  c #F8C73C",
"N  c #F7D13F",
"B  c #FBD03F",
"V  c #A28F4B",
"C  c #B9A14C",
"Z  c #BBA145",
"A  c #B8A252",
"S  c #C5A345",
"D  c #C8A547",
"F  c #CBAB4B",
"G  c #C9AA41",
"H  c #D3AE42",
"J  c #D9AF41",
"K  c #D3AF49",
"L  c #CCB146",
"P  c #D4B246",
"I  c #DCB343",
"U  c #DFBC44",
"Y  c #D4B24C",
"T  c #DAB54B",
"R  c #DDBA4B",
"E  c #C7AC55",
"W  c #D4B354",
"Q  c #D9B752",
"!  c #DDBB54",
"~  c #D4B55C",
"^  c #DCBC5A",
"/  c #E1B644",
"(  c #E3BB44",
")  c #E4BC49",
"_  c #E9BF4B",
"`  c #E9BF41",
"'  c #E1BF5B",
"]  c #D6BA61",
"[  c #D8BD65",
"{  c #DFC14D",
"}  c #DFC151",
"|  c #E6C144",
" . c #EAC243",
".. c #ECCC43",
"X. c #E5C24B",
"o. c #ECC34C",
"O. c #EACB4B",
"+. c #E6CA4C",
"@. c #F3CD43",
"#. c #FDCE42",
"$. c #F2C64C",
"%. c #F4CB4B",
"&. c #FACD4C",
"*. c #F6C644",
"=. c #EDD147",
"-. c #EDD14A",
";. c #F4D244",
":. c #FED344",
">. c #FDDA47",
",. c #F4D34B",
"<. c #FED64A",
"1. c #F3DA4E",
"2. c #FFDA4C",
"3. c #E5C553",
"4. c #EEC551",
"5. c #EACB55",
"6. c #E4C55B",
"7. c #E7C85B",
"8. c #E9CA5D",
"9. c #EBC559",
"0. c #F0C751",
"q. c #F4CA53",
"w. c #F9CE55",
"e. c #F3CD5B",
"r. c #EDD253",
"t. c #F1D451",
"y. c #FDD356",
"u. c #F5DB52",
"i. c #FFDB54",
"p. c #F2D55B",
"a. c #FFD559",
"s. c #FFDA59",
"d. c #F5DC5E",
"f. c #FFE54E",
"g. c #FFE84F",
"h. c #FEE650",
"j. c #FFEA51",
"k. c #FFE45C",
"l. c #FFEA5C",
"z. c #DBC36B",
"x. c #DEC165",
"c. c #DFC873",
"v. c #E4C562",
"b. c #E5C863",
"n. c #EACC64",
"m. c #E6C76A",
"M. c #E6CA6A",
"N. c #ECCE6A",
"B. c #E8C661",
"V. c #EED266",
"C. c #EED16C",
"Z. c #F3D264",
"A. c #FDDD64",
"S. c #F1D26E",
"D. c #FEDE69",
"F. c #E2CA73",
"G. c #E3CD79",
"H. c #E9CF7A",
"J. c #EED273",
"K. c #EDD27B",
"L. c #E5D17E",
"P. c #F2D673",
"I. c #F5D976",
"U. c #FCDE72",
"Y. c #F5DA79",
"T. c #F5DA7E",
"R. c #FFEC63",
"E. c #FFEC6B",
"W. c #FFE46E",
"Q. c #FFE371",
"!. c #FFEE74",
"~. c #FDE57F",
"^. c #FFEF7C",
"/. c #F7E07E",
"(. c #FFF075",
"). c #FFF27D",
"_. c #ECD887",
"`. c #EDDC8C",
"'. c #E8D583",
"]. c #F4DC83",
"[. c #F3DD8A",
"{. c #F9DD80",
"}. c #F1DE93",
"|. c #F5E184",
" X c #FDE681",
".X c #F6E28B",
"XX c #FDEC8D",
"oX c #FBE48A",
"OX c #FFF284",
"+X c #FFF48C",
"@X c #EFE190",
"#X c #F5E395",
"$X c #F9E594",
"%X c #FBEB95",
"&X c #F6E399",
"*X c #FCED9C",
"=X c #F7E998",
"-X c #FFF594",
";X c #FEF59B",
":X c #F7ECA4",
">X c #FBECA3",
",X c #FBEEAA",
"<X c #F7E7A0",
"1X c #FDF3A4",
"2X c #FFF8A3",
"3X c #FFF2AB",
"4X c #FFFAAE",
"5X c #FEF4B5",
"6X c #FFFBB1",
"7X c #FFF6B9",
"8X c None",
/* pixels */
"8X8X8X8X8X8X8X8X8X8X8X8X8X8X8X8X8X8X8X8X8X8X8X8X8X8X8X8X8X8X8X8X8X8X8X8X8X8X8X8X8X8X8X8X8X8X8X8X8X8X8X8X8X8X8X8X8X8X8X8X8X8X8X8X",
"8X8X8X8X8X8X8X8X8X8X8X8X8X8X8X8X8X8X8X8X8X8X8X8X8X8X8X8X7X7X7X7X7X7X7X7X7X8X8X8X8X8X8X8X8X8X8X8X8X8X8X8X8X8X8X8X8X8X8X8X8X8X8X8X",
"8X8X8X8X8X8X8X8X8X8X8X8X8X8X8X8X8X8X8X8X8X8X8X5X5X7X5X3X>X&X[.[.].[.&X,X7X7X7X7X7X8X8X8X8X8X8X8X8X8X8X8X8X8X8X8X8X8X8X8X8X8X8X8X",
"8X8X8X8X8X8X8X8X8X8X8X8X8X8X8X8X8X8X8X8X7X7X7X*XT.Z.0.$.$.$.$.X.X._ ) ( ) 6.H.&X5X7X7X7X8X8X8X8X8X8X8X8X8X8X8X8X8X8X8X8X8X8X8X8X",
"8X8X8X8X8X8X8X8X8X8X8X8X8X8X8X8X8X8X7X5X$XZ.$.&.&.q.&.q.q.q.0.0.o.o.X.( / / / I I m.}.7X7X7X8X8X8X8X8X8X8X8X8X8X8X8X8X8X8X8X8X8X",
"8X8X8X8X8X8X8X8X8X8X8X8X8X8X8X8X7X5X{.$.*.&.w.&.&.w.w.&.%.%.%.%.o.o.o._ ) ) / / I I J Q _.5X7X7X8X8X8X8X8X8X8X8X8X8X8X8X8X8X8X8X",
"8X8X8X8X8X8X8X8X8X8X8X8X8X8X8X7X[.q.*.#.&.y.<.y.y.i.@.<.:.$.;.@.%.n ;. .;.c  ./ I I I p i T [.7X7X8X8X8X8X8X8X8X8X8X8X8X8X8X8X8X",
"8X8X8X8X8X8X8X8X8X8X8X8X8X7X,Xe.z #.&.&.i.<.y.i.i.>.%.y.y.y.>.o.w.=...o.,.( $.k @.I I I J i i ' ,X7X7X8X8X8X8X8X8X8X8X8X8X8X8X8X",
"8X8X8X8X8X8X8X8X8X8X8X8X7X$X` b *.<.<.<.:.<.i.y.y.2.&.y.<.@.;.*.w.,. .q.;. .;.` @.( ` @.| i p i H _.7X7X8X8X8X8X8X8X8X8X8X8X8X8X",
"8X8X8X8X8X8X8X8X8X8X8X7XT.h z #.#.<.:.@.:.&.<.i.i.i.<.;.%.y.a.y.y.>.o.<.@.$.o.%.k X.@.I *.s I i i i M.5X7X8X8X8X8X8X8X8X8X8X8X8X",
"8X8X8X8X8X8X8X8X8X8X7XS.h z #.#.:.:.@.:.:.<.<.i.i.i.i.y.i.a.a.a.y.w.y.q.$.q.q.%. .o.n / @.j I I J i i [ 5X7X8X8X8X8X8X8X8X8X8X8X",
"8X8X8X8X8X8X8X8X8X7XN.g z M #.#.:.:.:.:.;.<.i.i.i.i.i.i.s.i.i.a.y.y.y.y.y.w.q.q.$.$.$.;. ./ ) I / ( i i v.5X7X8X8X8X8X8X8X8X8X8X",
"8X8X8X8X8X8X8X8X5XS.f h M #.m :.:.:.:.;.<.i.2.2.2.i.i.i.s.i.s.s.a.a.y.y.y.w.w.w.q.0.4.4._ _ )  .v ` ..i i m.5X7X8X8X8X8X8X8X8X8X",
"8X8X8X8X8X8X8X7X[.9 f b M #.:.m >.m :.>.<.<.2.i.i.i.s.s.k.R.A.A.D.D.W.A.D.A.y.w.w.q.q.0.4._ _ ;.s / ( c i i H.7X8X8X8X8X8X8X8X8X",
"8X8X8X8X8X8X8X>Xu f h M B n m :.m :.<.>.<.2.<.2.-X%X;X;X;X-X-X-X-X-X-X-X-X4X) w.y.q.q.q.0.0.4.%./  .U s p p i &X7X8X8X8X8X8X8X8X",
"8X8X8X8X8X8X5X/ 9 h b M N B B m :.:.:.:.:.<.2.>.1Xc :.f.j.j.j.j.j.g.f.f.f.+XE _ y.y.w.w.q.0.4.$.;.;.k ..( I J T ,X7X8X8X8X8X8X8X",
"8X8X8X8X8X7XK.9 f c n n m B n B B B B >.>.:.>.2.1Xh >.j.j.j.j.j.j.j.g.g.f.OX[ 4 w.y.a.w.w.q.0.0.o.) @.j @.d I I m.5X8X8X8X8X8X8X",
"8X8X8X8X8X,Xy 9 f c b n B M m B B B B B :.>.<.i.=Xc >.j.j.j.l.j.j.g.g.j.f.(.G.< 9.a.y.w.w.w.q.q.0.4.;./ $.j ( k I &X7X8X8X8X8X8X",
"8X8X8X8X5Xv.0 a h v N b n m m m B B B B :.:.:.W.|.b 2.j.j.j.j.j.j.j.j.g.g.E.`.< Q y.a.a.y.y.e.q.q.q.0.@. ./ @.j I 6.7X8X8X8X8X8X",
"8X8X8X8X,Xw 9 l h b b n b n m m B B B B B :.:.W.I.M f.j.j.j.l.j.j.j.j.j.j.l.:X; F a.a.y.a.a.a.w.w.q.q.0.@.@./ ) ) I #X7X8X8X8X8X",
"8X8X8X7XM.8 a ;.n N N n M M n m m B m :.:.:.:.~.V.#.f.j.j.j.j.g.j.j.j.j.j.j.4X5 Z s.i.a.a.a.y.y.w.w.w.q.&./ ,...) / B.7X8X8X8X8X",
"8X8X8X5Xi y g v v c v b M m n n m m m m m :.B XX5.:.f.h.j.j.g.k.f.f.g.j.j.j.2XD 4 s.s.s.a.a.a.a.y.y.w.e.0.&.k  .` @.J >X7X8X8X8X",
"8X8X8X}.8 y j k N b c b b M M M m m m m m B m ;XX.:.g.j.j.j.f.2X:.>.j.j.j.j.-X~ 2 a.s.s.a.s.s.a.a.y.e.w.q.y.| %.@.j ) T.7X8X8X8X",
"8X8X7Xv.t s j x x N x c b b b *.n M m m m m m 4Xl >.j.j.j.j.h.6X,.:.f.h.g.j.+X[ < t.s.s.A.s.a.s.a.a.y.y.y.q.<.k _ o.X.9.7X8X8X8X",
"8X8X7XH t d k | x l c c b b b b n n m m m m :.1Xc >.g.j.j.g.l.6Xp.:.f.f.j.j.!.G., 5.i.s.s.s.s.s.A.a.a.a.y.w.w.4.q.4.4.X.,X7X8X8X",
"8X8X:X8 i d ( |  . . . . .b c b b M M M m m y.$Xc >.g.j.j.g.E.6XD.:.f.j.j.j.E.`.= { s.s.s.s.s.s.a.a.a.a.a.y.w.y.q.q.0.4.oX7X8X8X",
"8X8X`.r i U ( | |  . .c c c b c b @.b M M n s.|.M >.g.g.g.g.).1XI.@.f.f.g.j.l.:X; L i.i.h.s.s.s.s.a.y.a.a.a.a.e.w.w.q.q.T.7X8X8X",
"8X7XF.r I U | X.X. . . . . .c b b c b M b M U.S.n f.j.j.g.j.OX_. Xn >.j.g.g.g.4X5 Z i.i.i.i.s.s.s.s.A.a.a.a.a.a.y.w.w.9.Z.7X8X8X",
"8X7Xx.r I ) X.X.X. . . . . .x c c c c b b b  Xn.@.f.j.g.g.g.-Xz.XXm >.f.j.f.f.2XD 4 i.i.i.i.s.s.s.s.s.s.a.a.a.a.a.a.e.w.w.7X8X8X",
"8X7X~ i T R X.X.X.X. .X. . . . .c  .b b b b XX3.:.f.g.g.g.g.2XD *X@.>.f.g.g.g.-X~ 2 <.i.i.h.i.s.s.s.s.s.s.s.s.a.a.y.y.w.w.5X7X8X",
"8X7XW H T { 3.3.o.X.X. .X. . . . .c c  . .b *X` :.f.g.g.g.f.4X: 2Xb >.h.j.f.g.OXz., ,.i.i.i.i.s.i.s.s.s.s.s.a.A.a.a.a.y.y.3X7X8X",
"8X7XY P R 3.3.3.3.+.X.X.X. .|  .c  .c c b b 1Xl >.f.g.j.g.j.:X; *Xc >.f.f.f.f.^.G.<  .2.2.i.i.i.h.s.s.k.s.s.s.a.a.a.a.y.y.>X7X8X",
"8X7XY P ! 3.6.3.3.3.X.X.X.X. .( | c | c c  .;Xc f.g.g.j.g.R.@X; #X .:.f.f.j.f.E.`.< U i.2.i.2.i.i.i.s.s.s.s.s.s.s.s.a.a.y.>X7X8X",
"8X7XW P ! 6.8.6.5.3.3.+.X.X.X. .|  .| c c 5..Xc >.g.j.j.j.(.G.; .XX.@.f.f.f.h.j.*X1 r 2.2.2.i.i.i.i.i.i.s.i.s.s.s.s.a.i.s.3X7X8X",
"8X7X^ Y ! 6.7.8.7.9.9.3.o.+.X.X.| | |  . .Z.Y.b f.g.j.j.g.).z.: ~.8.:.f.f.g.h.f.4X3 5 <.<.>.2.<.i.i.2.h.i.i.s.i.s.s.i.i.a.4X7X8X",
"8X7Xz.Y } 6.8.n.8.7.3.3.3.3.X.X.| X.| | | I.C.M f.g.j.j.j.+X`.G.;XD.<.f.j.g.f.f.;X7 5 <.<.<.<.i.2.2.i.i.h.i.i.s.s.s.s.s.s.5X5X8X",
"8X7XG.Y ! 7.n.n.8.8.7.5.5.3.+.X.+.X.|  .| |.5.:.f.g.g.g.j.R.(.(.E.i.f.f.j.g.g.f.-XF < #.:.<.>.<.<.2.i.i.i.2.i.i.s.i.s.s.A.7X5X8X",
"8X5X`.K ^ 7.n.n.n.n.8.7.6.5.3.3.X.X.X.X.| %XX.:.f.g.j.j.j.j.j.j.g.g.f.g.g.g.g.f.^.~ < @.:.<.<.<.<.2.2.2.2.i.i.i.s.h.i.s.W.7X8X8X",
"8X8X,XK ^ v.N.n.V.n.n.8.8.6.3.3.3.X.X.X.| 1Xg >.j.j.j.j.j.j.j.j.j.j.g.j.g.j.g.g.!.c.*  .:.:.:.>.<.<.>.2.2.i.i.i.i.i.s.i. X7X8X8X",
"8X8X7XW Q 6.N.C.C.N.n.n.8.8.6.5.3.3.X.X.X.1Xh f.j.j.j.j.j.j.j.j.j.g.j.g.j.j.g.j.R.'.1 j :.:.:.:.<.<.<.2.2.2.2.i.i.i.i.s.>X7X8X8X",
"8X8X7XF.T 6.M.N.S.C.n.n.n.8.8.6.9.3.3.+.9.=Xc >.j.j.j.j.l.j.j.g.g.h.j.j.j.j.j.j.j.#X= i :.#.:.:.>.:.:.<.<.2.2.i.2.i.i.s.5X7X8X8X",
"8X8X5X}.W 6.n.P.J.C.C.V.n.n.8.7.7.3.3.3.V.|. .f.j.j.j.j.j.R.(.(.E.k.>.h.j.j.j.j.j.;X3 5 #.#.#.:.:.:.<.>.<.<.>.<.2.2.i.Q.7X8X8X8X",
"8X8X8X5XT ' m.N.P.C.C.C.C.n.n.8.8.7.3.3.I.T.n f.l.j.j.j.j.OX=XG._.%X:.f.j.j.j.j.j.-X7 : #.m #.:.:.:.:.<.<.<.<.2.2.i.2.%X7X8X8X8X",
"8X8X8X5XH.^ m.N.S.P.P.J.C.C.V.n.n.8.8.7.|.Z.@.h.j.j.j.j.j.+XW 5 D 1Xb 2.j.j.j.j.j.+XG = n m m m #.:.:.:.:.:.<.<.<.<.s.5X7X8X8X8X",
"8X8X8X5X,XQ 6.N.P.P.P.P.P.C.C.V.n.n.8.7.$X7.:.h.j.j.l.j.j.-XF - % 1Xc 2.j.j.l.j.j.).W - c m m :.#.:.:.:.:.:.:.:.<.<. X7X8X8X8X8X",
"8X8X8X8X5XF.^ m.J.P.P.P.P.C.C.C.n.n.n.8.;X| :.j.j.j.j.j.j.;XS $ 4 1Xl >.j.j.j.j.j.E.z.- k m m m m m #.#.:.:.:.<.<.2.6X7X8X8X8X8X",
"8X8X8X8X5X,X^ 6.N.P.P.I.P.P.C.C.C.V.n.n.1Xk <.j.j.l.j.j.j.2X5 $ e 1Xk >.j.j.j.j.j.R.L.- a M M m m m m m :.:.:.:.:. X7X8X8X8X8X8X",
"8X8X8X8X8X5X'.' n.S.I.I.I.P.P.S.S.C.n.n.1XZ.W.!.).).).OX).1X: # r 1X/.+X-X-X;X;X;X;X@X= y b b n m m m m m #.#.:.i.5X7X8X8X8X8X8X",
"8X8X8X8X8X8X5Xv.v.N.P.P.Y.I.P.P.C.C.C.V.c.c.F.F.G.F.F.c.z.~ > # P E ~ ] ] [ [ ^ ~ ~ D ; 3 b M b n n m m m m B :.%X7X8X8X8X8X8X8X",
"8X8X8X8X8X8X5X<X' b.S.I.Y.Y.I.I.I.C.S.C.E < 7 5 : : 3 > > 5 : # P G , 1 1 1 1 ; 1 1 1 = = c b b n M M m m m m Q.7X8X8X8X8X8X8X8X",
"8X8X8X8X8X8X8X7X[.6.M.P.I.I.Y.Y.I.J.P.S.C.V + + . . X X . X . % T | 4               o @ = c b b b M M M M m y.5X8X8X8X8X8X8X8X8X",
"8X8X8X8X8X8X8X8X7XK.B.N.P.I.Y.Y.Y.I.P.C.C.M.A A A C A C C Z Z C R X.{ G 6 6 6 6 e e q q w c c c c b M M M &.4X7X8X8X8X8X8X8X8X8X",
"8X8X8X8X8X8X8X8X8X5XJ.B.S.P.I.I.Y.Y.U.P.P.C.C.m.m.b.7.} x.6.} } 3.{ X.X.| U | U ` k x x l c c b c b b b M >X7X8X8X8X8X8X8X8X8X8X",
"8X8X8X8X8X8X8X8X8X8X7XK.B.S.I.I.Y.Y.T.I.P.J.J.p.f.5.n.V.n.8.8.} 3.3.X.X.{ | X.( ( | x x c x l x c c b %.>X7X8X8X8X8X8X8X8X8X8X8X",
"8X8X8X8X8X8X8X8X8X8X8X7X].Z.S.I.I.I.Y.Y.I.I.J.d.3.p.8.r.r.5.-.r.+.+.-.{ =.=.=.=.| | | x x c x l c c O.>X5X8X8X8X8X8X8X8X8X8X8X8X",
"8X8X8X8X8X8X8X8X8X8X8X8X7X}.B.S.I.I./.Y.I.I.P.1.-.u.C.r.p.5.u.} 8.-.t.{ =.{ v O.| ( | | x x x x h p.3X7X8X8X8X8X8X8X8X8X8X8X8X8X",
"8X8X8X8X8X8X8X8X8X8X8X8X8X7X,XJ.N.P.P.Y.Y.Y.A.u.J.h.V.h.1.r.1.5.8.1.1.+.-.3.1.+...U | ( | | x  .].7X8X8X8X8X8X8X8X8X8X8X8X8X8X8X",
"8X8X8X8X8X8X8X8X8X8X8X8X8X8X7X5X#XS.S.I.I.Y.N.n.P.b.M.M.b.7.6.6.8.3.} } { X.{ { { X.X.| U | n.3X7X8X8X8X8X8X8X8X8X8X8X8X8X8X8X8X",
"8X8X8X8X8X8X8X8X8X8X8X8X8X8X8X8X7X5X[.P.S.I.I.Y.I.I.P.J.J.C.C.V.V.n.8.7.6.5.+.X.X.X.X.( n.=X7X8X8X8X8X8X8X8X8X8X8X8X8X8X8X8X8X8X",
"8X8X8X8X8X8X8X8X8X8X8X8X8X8X8X8X8X8X7X5X$XT.P.P.I.P.P.P.P.J.C.C.N.n.n.8.7.6.6.3.3.3.J.>X7X7X8X8X8X8X8X8X8X8X8X8X8X8X8X8X8X8X8X8X",
"8X8X8X8X8X8X8X8X8X8X8X8X8X8X8X8X8X8X8X8X7X7X3X$X|.I.J.I.P.J.J.C.C.C.n.n.n.7.N.K.=X5X7X7X8X8X8X8X8X8X8X8X8X8X8X8X8X8X8X8X8X8X8X8X",
"8X8X8X8X8X8X8X8X8X8X8X8X8X8X8X8X8X8X8X8X8X8X8X7X7X5X,X*X%X$X.X.X[.[..X=X:X3X7X7X7X8X8X8X8X8X8X8X8X8X8X8X8X8X8X8X8X8X8X8X8X8X8X8X",
"8X8X8X8X8X8X8X8X8X8X8X8X8X8X8X8X8X8X8X8X8X8X8X8X8X8X8X7X7X7X7X7X5X7X7X7X7X7X8X8X8X8X8X8X8X8X8X8X8X8X8X8X8X8X8X8X8X8X8X8X8X8X8X8X",
"8X8X8X8X8X8X8X8X8X8X8X8X8X8X8X8X8X8X8X8X8X8X8X8X8X8X8X8X8X8X8X8X8X8X8X8X8X8X8X8X8X8X8X8X8X8X8X8X8X8X8X8X8X8X8X8X8X8X8X8X8X8X8X8X"
};
