/* XPM */
static char *result[] = {
/* columns rows colors chars-per-pixel */
"32 32 214 2 ",
"   c #4C3E14",
".  c #503F13",
"X  c #4D4116",
"o  c #4E461A",
"O  c #534415",
"+  c #5A4615",
"@  c #5C4917",
"#  c #554618",
"$  c #544A1B",
"%  c #5D4C19",
"&  c #5F521D",
"*  c #634B15",
"=  c #624E19",
"-  c #684E17",
";  c #64531C",
":  c #6B561B",
">  c #66591E",
",  c #6B5A1E",
"<  c #725619",
"1  c #785718",
"2  c #735C1C",
"3  c #7A5B1A",
"4  c #74601F",
"5  c #7C641E",
"6  c #645723",
"7  c #665A22",
"8  c #6C5D21",
"9  c #6D5D2A",
"0  c #735F23",
"q  c #785F27",
"w  c #695E34",
"e  c #6C612C",
"r  c #6C6021",
"t  c #736323",
"y  c #7A6622",
"u  c #7C6A24",
"i  c #74662B",
"p  c #7A652B",
"a  c #7B6C2B",
"s  c #756828",
"d  c #6A6032",
"f  c #796433",
"g  c #7C6C32",
"h  c #7A6638",
"j  c #7A7148",
"k  c #81631C",
"l  c #836B1E",
"z  c #99731F",
"x  c #A17A1E",
"c  c #806720",
"v  c #836D24",
"b  c #846E2C",
"n  c #8E6C21",
"m  c #847026",
"M  c #8B7325",
"N  c #83732B",
"B  c #8A752B",
"V  c #87792E",
"C  c #8D792C",
"Z  c #8E7826",
"A  c #937523",
"S  c #927B26",
"D  c #9C7A24",
"F  c #917328",
"G  c #947C2C",
"H  c #9A7F2A",
"J  c #987521",
"K  c #816B31",
"L  c #837533",
"P  c #8B7C33",
"I  c #85713B",
"U  c #897B3B",
"Y  c #937B30",
"T  c #997C31",
"R  c #A37E23",
"E  c #A17E29",
"W  c #897A43",
"Q  c #96852E",
"!  c #9D822A",
"~  c #938130",
"^  c #9B8333",
"/  c #94843E",
"(  c #9B883A",
")  c #A38326",
"_  c #AC8225",
"`  c #A6832C",
"'  c #AC8C2B",
"]  c #A8842B",
"[  c #B58A25",
"{  c #B98C25",
"}  c #B48C2C",
"|  c #B98E2A",
" . c #AF9227",
".. c #B5942D",
"X. c #BB922C",
"o. c #A48B32",
"O. c #AC8F30",
"+. c #A4923C",
"@. c #AC9D3C",
"#. c #AE923A",
"$. c #B49332",
"%. c #BD9631",
"&. c #BD9A35",
"*. c #BD9A39",
"=. c #B49735",
"-. c #B5A33C",
";. c #BAA43C",
":. c #C39729",
">. c #C59C2C",
",. c #C69A29",
"<. c #C19731",
"1. c #C39C33",
"2. c #C39F39",
"3. c #CDA12C",
"4. c #D1A82F",
"5. c #CBA433",
"6. c #CCAB34",
"7. c #C9A53A",
"8. c #CCAA3B",
"9. c #C5A236",
"0. c #D1A632",
"q. c #D4AB33",
"w. c #D1AD3A",
"e. c #D4B23B",
"r. c #DDB63A",
"t. c #DEBA3C",
"y. c #D8B237",
"u. c #E0B12F",
"i. c #E6BB37",
"p. c #E5BC38",
"a. c #EECB3C",
"s. c #EBC338",
"d. c #F0CB3C",
"f. c #F3D03E",
"g. c #FADD3E",
"h. c #948744",
"j. c #A58E44",
"k. c #AE9542",
"l. c #AD9942",
"z. c #B4A544",
"x. c #BCA843",
"c. c #B8A94B",
"v. c #B9A748",
"b. c #BFB046",
"n. c #BFAF52",
"m. c #C5A646",
"M. c #C9AA40",
"N. c #CEB344",
"B. c #C9B748",
"V. c #CBBB4B",
"C. c #C4B348",
"Z. c #D2B343",
"A. c #DCB643",
"S. c #DABB42",
"D. c #D4B44A",
"F. c #D3BC4D",
"G. c #D7BC44",
"H. c #C0AD54",
"J. c #CCB756",
"K. c #E2BE44",
"L. c #E1BF48",
"P. c #DDC648",
"I. c #DBCA4C",
"U. c #D6C44C",
"Y. c #DAC55A",
"T. c #D9C954",
"R. c #E4C442",
"E. c #EBCA44",
"W. c #E3C54A",
"Q. c #E5CB4A",
"!. c #EBCD4D",
"~. c #EAC748",
"^. c #EDD244",
"/. c #EDD24B",
"(. c #EFDA4F",
"). c #F1D543",
"_. c #F4D945",
"`. c #F2D64B",
"'. c #F4DA4C",
"]. c #F9DD4A",
"[. c #E4CB54",
"{. c #E9CD53",
"}. c #E1CF5E",
"|. c #EDD354",
" X c #ECD35A",
".X c #EAD956",
"XX c #F4DC53",
"oX c #F2DB5C",
"OX c #FCDC55",
"+X c #FDE44C",
"@X c #F9E94D",
"#X c #F5E254",
"$X c #F6E25D",
"%X c #FAE65D",
"&X c #FDEB5C",
"*X c #FCE751",
"=X c #FEF35C",
"-X c #FBF051",
";X c #CDC57E",
":X c #DDC871",
">X c #EFD560",
",X c #EBDA66",
"<X c #E3D86E",
"1X c #F2DC63",
"2X c #F7E165",
"3X c #FBEA61",
"4X c #F6E36A",
"5X c #F9E56A",
"6X c #FCEB6B",
"7X c #F8E661",
"8X c #FEF66A",
"9X c #FEF973",
"0X c #FDF877",
"qX c None",
/* pixels */
"qXqXqXqXqXqXqXqXqXqXqXqXu s L P P L g i qXqXqXqXqXqXqXqXqXqXqXqX",
"qXqXqXqXqXqXqXqXqX4 Z ' t./.#X`.'.XX.XY.l.U p qXqXqXqXqXqXqXqXqX",
"qXqXqXqXqXqXqXv Q 6._.+X-XoX7X$X#X@X+X3X6X4XJ.h.qXqXqXqXqXqXqXqX",
"qXqXqXqXqXqXM  .a.+X'.(.oXW.$XoX`.XXoX|.2X1X5X1Xc.g qXqXqXqXqXqX",
"qXqXqXqXqXB >.g.).'.W.$X.XB.z.@.@.x.V..XoX{.5X5X4XY.U qXqXqXqXqX",
"qXqXqXqXb 1.f.].^.Q.U.~ 5 M u u u v m N -.Y.5X4X X8X,XW qXqXqXqX",
"qXqXqXI $.R.E.'.(.Q 2 r > s m m t B v u m B z.1X>X1X9X<Xj qXqXqX",
"qXqXW Q G.t.R.P.t 2 & u m u u N N m G O.~ B C +.,X X6X0X;XqXqXqX",
"qXqXK Z.G.Z.W.r > ; u t u u u u V a C o.^ k.P G k.4X{.6X0Xh.qXqX",
"qXI ` Z.e.S.V : $ t t 8 5 ) ..) ) =.*.k.k.:Xm.P B c.4XoX8XU.e qX",
"qXg Z.Z.A.-.; $ t , r k u.s...2 , ) ^.OXH.j.( T s P Y. X7X=XP qX",
"qXT S.Z.e.a 6 & t > , ,.s.s.m 2 ^ t i.].oXh.P ) ~ B c.1XW.&X;.qX",
"L #.D.7.N.; $ 7 7 r k i.p.9.: x B.u ' './.n.v m Z u V 1X|.7XP.7 ",
"a m.F.N.+.8 # 7 > 6 } p.r.H z i.a.C.F E.'. XZ A A N B U.W.7X(.i ",
"b D.N.M.P ; % : 7 1 e.r.w., [ s.a.4.v 3.`.^.z.l u m N b.oX%X#XN ",
"b Z.*.2.N ; , : : R e.y.' 8 : 0.i.n v S ).).T.v v B C v.!.{.#XV ",
"c Z.Z.N.K & = = - 5.e.q.5 : 2 z ..: 2 < t.^.^.( 5 s v z./..XXXP ",
"p M.*.Z.B : + 6 n 6.w.&.: = : 2 M : , : ..f._.U.5 u m C.W.|.XXL ",
"a *.7.7.o.%   < ..8.5.B % + % : > = 2 t l f._.(.V r m I.7X%X#Xi ",
"g ] 2.} *.= . 1 >.5.5.; + , % % - ; : 4 4 4.f.f.z.r Q #X/.%XI.e ",
"qXF 7.$.2.8 = * 1 1 3 % % % = , , 4 3 5 > k z z S s @.(.XX3X;.qX",
"qXp 2.} } O.; # @ + + @ + $ 2 , > > , > , 4 u 5 > 5 #XQ.#X#X~ qX",
"qXh E 1.} X.y -   @ - # + : ; > , > , u , r 5 & 5 ;./.#X=XU.d qX",
"qXqXf <.X.<.1.; =   O - + : ; ; > , > : 5 > % : Q @X#X@X=Xh.qXqX",
"qXqXh F 1.| _ 1.: < O O   X 2 ; > r 4 - # + - G ).R./.-Xm.d qXqX",
"qXqXqXf ] 1.:.{ >.l + + O     X O O O # * ; O.E.G.'.*XP.g qXqXqX",
"qXqXqXqXp [ ,.:.[ :.| 5 * * + + * * + - Z 8.K.E.!.OXQ.L qXqXqXqX",
"qXqXqXqXqXy _ ,.:.,.{ 6.4...D Z A ! =.5.w.%.K.L.!.5.L qXqXqXqXqX",
"qXqXqXqXqXqX2 R ,.4.,.0.q.q.:.1.| 5.>.8.w.A.L.K.=.a qXqXqXqXqXqX",
"qXqXqXqXqXqXqXqX5 _ 3.0.0.q.>.5.3.7.1.A.D.7.$.b 9 qXqXqXqXqXqXqX",
"qXqXqXqXqXqXqXqXqX= 3 J X.,.0.0.0.%.&.*.T p 9 qXqXqXqXqXqXqXqXqX",
"qXqXqXqXqXqXqXqXqXqXqXqX- ; 0 0 q 0 9 6 qXqXqXqXqXqXqXqXqXqXqXqX"
};
