/* XPM */
static char *result[] = {
/* columns rows colors chars-per-pixel */
"16 16 187 2 ",
"   c #AB8C36",
".  c #A58A3B",
"X  c #AD913D",
"o  c #DEB63B",
"O  c #E3B93A",
"+  c #E9C03D",
"@  c #EDC33E",
"#  c #EFC43E",
"$  c #F0C439",
"%  c #F3C53C",
"&  c #F5C73D",
"*  c #F7C73C",
"=  c #F0C83D",
"-  c #F6C83D",
";  c #FCCB3E",
":  c #FACC3D",
">  c #FACE3F",
",  c #AF9548",
"<  c #C8A945",
"1  c #DFB941",
"2  c #DEBD4D",
"3  c #C2A855",
"4  c #DDBF56",
"5  c #D5BE59",
"6  c #E0B741",
"7  c #E6BE42",
"8  c #E6BE45",
"9  c #E1BF4A",
"0  c #E2BF4D",
"q  c #E1BC52",
"w  c #DDC055",
"e  c #DDC254",
"r  c #E6C041",
"t  c #E5C042",
"y  c #E6C646",
"u  c #E8C143",
"i  c #E9C243",
"p  c #EAC242",
"a  c #ECC145",
"s  c #ECC445",
"d  c #E7C34A",
"f  c #E6C34B",
"g  c #E6C24C",
"h  c #E6C74E",
"j  c #EDC649",
"k  c #EEC54D",
"l  c #EFC64C",
"z  c #FECD40",
"x  c #FECE41",
"c  c #F1C94A",
"v  c #F2CA4C",
"b  c #F6CA4D",
"n  c #F5CC4D",
"m  c #FFD141",
"M  c #FDD344",
"N  c #FDD245",
"B  c #FFD244",
"V  c #FFD345",
"C  c #FFD447",
"Z  c #FFD74A",
"A  c #FFD64B",
"S  c #FAD14F",
"D  c #FDD64C",
"F  c #FCDD4A",
"G  c #F9DA4D",
"H  c #FFD84C",
"J  c #FFD94E",
"K  c #E6C751",
"L  c #E6C552",
"P  c #E7C654",
"I  c #E7C656",
"U  c #E7C757",
"Y  c #EAC751",
"T  c #E8CB56",
"R  c #E4C559",
"E  c #E1C05D",
"W  c #E3C25F",
"Q  c #E5C55D",
"!  c #EBC759",
"~  c #E2CB5F",
"^  c #E5CE5D",
"/  c #E9CB5B",
"(  c #EBCF5A",
")  c #F3C953",
"_  c #F6CB53",
"`  c #F2CC52",
"'  c #F0CD57",
"]  c #F2CE56",
"[  c #F7CF56",
"{  c #F8CE55",
"}  c #F9D052",
"|  c #FCD452",
" . c #FBD057",
".. c #FCD255",
"X. c #FCD157",
"o. c #FDD457",
"O. c #FFD756",
"+. c #FED851",
"@. c #FFDB51",
"#. c #FFDB53",
"$. c #FCDD53",
"%. c #FFDB55",
"&. c #FFDC54",
"*. c #FFDC57",
"=. c #F2D15A",
"-. c #F5D75E",
";. c #F9D358",
":. c #FDD358",
">. c #FFD659",
",. c #FFD75A",
"<. c #FFD958",
"1. c #FFDB58",
"2. c #FFDB59",
"3. c #FFD85A",
"4. c #F9DC59",
"5. c #FBDD5B",
"6. c #F9DA5D",
"7. c #F9DE5C",
"8. c #FFDD5D",
"9. c #FEE24C",
"0. c #FEE34E",
"q. c #FFE64F",
"w. c #FFE751",
"e. c #FFE752",
"r. c #FFE850",
"t. c #FFE951",
"y. c #FFEA51",
"u. c #FFEA52",
"i. c #FFEB52",
"p. c #FFEB53",
"a. c #FFEB57",
"s. c #FFEB5D",
"d. c #FFEA5E",
"f. c #FFED5E",
"g. c #E6C760",
"h. c #E4C562",
"j. c #E7CC61",
"k. c #EACC61",
"l. c #EACC62",
"z. c #EBCD64",
"x. c #E2C86E",
"c. c #E9D362",
"v. c #ECD063",
"b. c #EFD26D",
"n. c #F7D563",
"m. c #F0D960",
"M. c #F2DD63",
"N. c #F9DE66",
"B. c #F1D56C",
"V. c #F1D56D",
"C. c #F0D46F",
"Z. c #FAD76C",
"A. c #E4CB74",
"S. c #E5CC74",
"D. c #EDD071",
"F. c #EBD27B",
"G. c #EBD37E",
"H. c #F0D470",
"J. c #F1D472",
"K. c #F0D672",
"L. c #F2D677",
"P. c #F3D873",
"I. c #F5D877",
"U. c #F5D978",
"Y. c #F5E162",
"T. c #FEE167",
"R. c #FFED63",
"E. c #FCE866",
"W. c #FFE468",
"Q. c #FFE669",
"!. c #FEEC6E",
"~. c #FFE57F",
"^. c #E9D281",
"/. c #EFD680",
"(. c #F3DB84",
"). c #F6DD84",
"_. c #F6DF89",
"`. c #F5E28F",
"'. c #F9E18C",
"]. c #F7E492",
"[. c #F6E494",
"{. c #FDE690",
"}. c #FFE992",
"|. c #F6E398",
" X c #FAE799",
".X c #FFEE9F",
"XX c None",
/* pixels */
"XXXXXXXXXXXX'.).(.|.XXXXXXXXXXXX",
"XXXXXXXXZ...S n j 8 q G.XXXXXXXX",
"XXXXXXb N D +.| } v s 6 E XXXXXX",
"XXXXa > M H T.Q.W.n._ k r W XXXX",
"XXQ $ : m A 4.i.y.^ [ { l 7 /.XX",
"XXo = - ; O.G s.0.M.Y >. .c ! XX",
"S.1 p # & ;.F !.$.E.9 2.,.X.) XX",
"x.0 d i @ ] 9.m.5.d.2 &.1.3.:.{.",
"A.R P f u ' q.c.6.w.4 J #.*.<.}.",
"^.g.k.I g =.t.a.e.r.w C H @.%..X",
"XXh.b.l.U -.p.Y.7.u.e x V Z 8.XX",
"XXF.J.C.z.N.f.5 j.R.~ % z B ~.XX",
"XXXXD.I.H.3 , . < X   O * o.XXXX",
"XXXXXXL.U.V.( T h y t + ` XXXXXX",
"XXXXXXXX_.P.B.v./ K L K.XXXXXXXX",
"XXXXXXXXXXXX X].`.[.XXXXXXXXXXXX"
};
