/* XPM */
static char *result[] = {
/* columns rows colors chars-per-pixel */
"32 32 153 2 ",
"   c #967E2F",
".  c #8F7C3A",
"X  c #947D31",
"o  c #917E3E",
"O  c #9C812D",
"+  c #9A843A",
"@  c #A4822E",
"#  c #B69035",
"$  c #BB9637",
"%  c #BF9833",
"&  c #B2933B",
"*  c #BF9D3A",
"=  c #C9A337",
"-  c #D3AB35",
";  c #D4AD3B",
":  c #DDB232",
">  c #D7B03A",
",  c #E2B332",
"<  c #EBBB35",
"1  c #E5BC3D",
"2  c #E9BF3D",
"3  c #E7C03F",
"4  c #EDC23D",
"5  c #F3C53C",
"6  c #F4C93C",
"7  c #FBCC3E",
"8  c #958343",
"9  c #BFA046",
"0  c #C7A740",
"q  c #CEAF47",
"w  c #C5A349",
"e  c #CAA74B",
"r  c #D7AF41",
"t  c #D5B144",
"y  c #DCB442",
"u  c #D4B24B",
"i  c #DEB74C",
"p  c #DDBC4C",
"a  c #C5A952",
"s  c #CEAD52",
"d  c #CAAF5A",
"f  c #CDB25A",
"g  c #DBB750",
"h  c #DBBA57",
"j  c #DDBE5D",
"k  c #E0B642",
"l  c #E5BD43",
"z  c #E0B84B",
"x  c #E8BE4A",
"c  c #E3BD54",
"v  c #CCBC6E",
"b  c #D1B763",
"n  c #D1B864",
"m  c #D8BE65",
"M  c #E6C145",
"N  c #EBC343",
"B  c #ECCA46",
"V  c #E6C34C",
"C  c #EDC34C",
"Z  c #E7CA4C",
"A  c #E9CC4E",
"S  c #F3CC43",
"D  c #FDCE41",
"F  c #F0C74D",
"G  c #F3CB4B",
"H  c #F9CD4C",
"J  c #FED344",
"K  c #FDDA47",
"L  c #F7D34D",
"P  c #FDD44B",
"I  c #FEDA4C",
"U  c #E5C554",
"Y  c #EAC652",
"T  c #EBCD57",
"R  c #E4C459",
"E  c #EAC55B",
"W  c #E9CB5C",
"Q  c #F0C650",
"!  c #F5CB53",
"~  c #F9CE55",
"^  c #EDD256",
"/  c #EED25C",
"(  c #FCD255",
")  c #FFDB54",
"_  c #F4D15B",
"`  c #FED55A",
"'  c #FFDA59",
"]  c #FFE54E",
"[  c #FFE94F",
"{  c #FFE754",
"}  c #FFEA52",
"|  c #FFE65D",
" . c #FFEB5C",
".. c #DFC267",
"X. c #DCC46C",
"o. c #E5C563",
"O. c #E7C961",
"+. c #EBCD63",
"@. c #ECCE69",
"#. c #EED162",
"$. c #EDD16B",
"%. c #F2D565",
"&. c #F8D364",
"*. c #F5D964",
"=. c #FFDB61",
"-. c #F1D36C",
";. c #F4D96F",
":. c #FADB69",
">. c #E3CC72",
",. c #E9CE77",
"<. c #EED474",
"1. c #EAD37D",
"2. c #F2D673",
"3. c #F4D976",
"4. c #FBDF74",
"5. c #F4DA7A",
"6. c #FFED64",
"7. c #FFEF6A",
"8. c #FFF06D",
"9. c #FFE273",
"0. c #FEED72",
"q. c #F3E279",
"w. c #FDE37C",
"e. c #FEEE7E",
"r. c #FFF074",
"t. c #FFF17A",
"y. c #EAD680",
"u. c #EED989",
"i. c #F0D781",
"p. c #F1DA84",
"a. c #F8DC80",
"s. c #F4DE8C",
"d. c #F0DE92",
"f. c #FCE384",
"g. c #FAE38C",
"h. c #F9EC8C",
"j. c #FFF386",
"k. c #FFF28B",
"l. c #F5E293",
"z. c #FAE593",
"x. c #FFEB91",
"c. c #F5E499",
"v. c #FAE799",
"b. c #FEEB98",
"n. c #F6E7A0",
"m. c #F8E7A0",
"M. c #FAEBA5",
"N. c #FBEEAB",
"B. c #FFF0A5",
"V. c #FEF1AC",
"C. c #FEF3B4",
"Z. c #FFF6B9",
"A. c None",
/* pixels */
"A.A.A.A.A.A.A.A.A.A.A.A.A.A.A.A.A.A.A.A.A.A.A.A.A.A.A.A.A.A.A.A.",
"A.A.A.A.A.A.A.A.A.A.A.C.z.a.2.$.$.2.p.m.Z.A.A.A.A.A.A.A.A.A.A.A.",
"A.A.A.A.A.A.A.A.A.g.&.H ~ H G ! C x z k z ,.N.A.A.A.A.A.A.A.A.A.",
"A.A.A.A.A.A.A.v.! D ( P I H ( S G S S l k y r ,.C.A.A.A.A.A.A.A.",
"A.A.A.A.A.A.5.S D J L ) I L L L ( G S B l N 1 ; g M.A.A.A.A.A.A.",
"A.A.A.A.A.-.< D K J J ) ) ' ( ' ( ~ ~ ! C S l y y u n.A.A.A.A.A.",
"A.A.A.A.2.< D D J J I I ) ) ' =.' =.` ~ ! F x C l 1 y M.A.A.A.A.",
"A.A.A.s., 5 7 D J J P P f.0.r.r.0.0.k.c ~ ~ ! F N 1 t c Z.A.A.A.",
"A.A.A.y < 5 6 7 J K J I ;.] [ } } [ 6.a ~ ` ! ! C M l k i.A.A.A.",
"A.A.1.: 4 6 6 7 7 J J ) _ { } } } }  .n Y ( ` ( ! G B l z N.A.A.",
"A.A.t 4 6 6 5 7 7 7 J =.G } } } [ } } >.i ` ( ` ( ! F N l i.A.A.",
"A.s.- 1 5 5 5 5 7 7 7 9.B [ } e.P [ } <.q ' ` ` ` ( ~ B B E Z.A.",
"A.>.> M N 4 5 5 6 7 7 9.S [ } k.L ] } q.= ' ' ' ` ` ` ! ! Y M.A.",
"A.j > x M N N 5 5 6 7 ;.K [ [ h.' { { e.* ) | ' ' ` ` ` ~ ! v.A.",
"A.u p V M M N N 4 5 5 ;.K [ [ ,.;.] ] 0.9 ) ' ' ' ' ` ` ` ~ a.A.",
"Z.u p U V V M N N 4 4 2.K } } X.;.K } 6.a L I { ) ' ' ` ` ` f.A.",
"Z.u h W U U V M M 4 B %.] [  .f $.K }  .n B ) ) ) ) ) ' ' ' w.A.",
"A.h R W T U V V M l T ^ ] [ 7.X.9.K [ ] X.> I I I ) ) ) ' ' f.A.",
"A...j +.+.W W V M M $.L ] } } 6.{ ] [ [ $.; J P I I ) ) ) ' x.A.",
"A.1.R @.+.+.W U Y Y 2.B } } } } } } } [ q.= J J P I I ) ) ) B.A.",
"A.c.h @.$.@.+.E R U 3.J } }  .6.| ] } } 0.$ D J J P I I ) ' Z.A.",
"A.C.m @.2.$.$.+.E E <.K } } 8...y.K } } r.$ 7 D J J J P I w.A.A.",
"A.A.p.o.2.2.-.$.+.W <.] } } r.& v S [ } 6.9 5 7 J D J J I B.A.A.",
"A.A.C.o.$.2.3.<.$.+.5.| 6.7.j.@ >.*.r.r.r.f 1 6 7 7 J J 9.A.A.A.",
"A.A.A.c.o.2.5.2.-.$.f s s s e O q 9 w w w # - 5 7 7 7 P V.A.A.A.",
"A.A.A.A.p.@.3.5.2.2.m 8 o o . + p & X     O - 4 5 5 D b.A.A.A.A.",
"A.A.A.A.A.i.-.3.5.3.2.$.T O.W R U V M M l 3 4 4 4 5 g.A.A.A.A.A.",
"A.A.A.A.A.A.s.-.3.5.3.*.^ / / A A Z B B M M N 3 N z.A.A.A.A.A.A.",
"A.A.A.A.A.A.A.m.2.2.5.%.%./ / T ^ A Z Z M l l #.N.A.A.A.A.A.A.A.",
"A.A.A.A.A.A.A.A.Z.v.5.2.3.<.<.$.+.O.R R U $.c.A.A.A.A.A.A.A.A.A.",
"A.A.A.A.A.A.A.A.A.A.A.N.v.g.p.5.5.5.p.l.V.A.A.A.A.A.A.A.A.A.A.A.",
"A.A.A.A.A.A.A.A.A.A.A.A.A.A.A.A.Z.A.A.A.A.A.A.A.A.A.A.A.A.A.A.A."
};
