/* XPM */
static char *result[] = {
/* columns rows colors chars-per-pixel */
"16 16 205 2 ",
"   c #4E4114",
".  c #564414",
"X  c #564416",
"o  c #5E4917",
"O  c #5B4A18",
"+  c #5D4B18",
"@  c #5F4E19",
"#  c #5E511D",
"$  c #5D511E",
"%  c #614B17",
"&  c #614E19",
"*  c #604F19",
"=  c #614F19",
"-  c #634E18",
";  c #614E1A",
":  c #624F1A",
">  c #6A5017",
",  c #65531A",
"<  c #67561A",
"1  c #65541D",
"2  c #67551C",
"3  c #65561D",
"4  c #6B571C",
"5  c #6E581B",
"6  c #6A581D",
"7  c #6B5A1D",
"8  c #69581F",
"9  c #6C5C1F",
"0  c #6F5E1E",
"q  c #745C1B",
"w  c #705D1E",
"e  c #715E1E",
"r  c #7B601C",
"t  c #79611E",
"y  c #7B621F",
"u  c #7F621C",
"i  c #7D641E",
"p  c #675A20",
"a  c #6D5E21",
"s  c #6F5E20",
"d  c #746423",
"f  c #746224",
"g  c #756526",
"h  c #7B6721",
"j  c #786724",
"k  c #7C6822",
"l  c #85671E",
"z  c #8A6D1F",
"x  c #836A22",
"c  c #876D21",
"v  c #876E22",
"b  c #876F22",
"n  c #816F27",
"m  c #846F24",
"M  c #846F26",
"N  c #8B6F21",
"B  c #8B6D27",
"V  c #836A2D",
"C  c #83692E",
"Z  c #846D2C",
"A  c #897225",
"S  c #887027",
"D  c #887227",
"F  c #85772D",
"G  c #8A762B",
"H  c #88762D",
"J  c #8E792A",
"K  c #937523",
"L  c #907525",
"P  c #947B27",
"I  c #957D26",
"U  c #9C7A24",
"Y  c #997E25",
"T  c #997C26",
"R  c #967C28",
"E  c #907E2D",
"W  c #907C2F",
"Q  c #987F2A",
"!  c #9B7F2E",
"~  c #8C7633",
"^  c #8E7837",
"/  c #907931",
"(  c #9B7F30",
")  c #9A872F",
"_  c #978631",
"`  c #9A8031",
"'  c #9C8231",
"]  c #9B8537",
"[  c #978834",
"{  c #9A8832",
"}  c #998937",
"|  c #93823A",
" . c #95833B",
".. c #97863B",
"X. c #A48123",
"o. c #AE8A27",
"O. c #A38129",
"+. c #A2832B",
"@. c #A5842B",
"#. c #A0812D",
"$. c #A5852C",
"%. c #A1892E",
"&. c #AF8F2B",
"*. c #B28B27",
"=. c #B6922A",
"-. c #BA9028",
";. c #B8902E",
":. c #B9922F",
">. c #BE982E",
",. c #A88630",
"<. c #A08F36",
"1. c #A88D35",
"2. c #A28A3A",
"3. c #A68F38",
"4. c #A59137",
"5. c #AF9C33",
"6. c #A29038",
"7. c #A2903B",
"8. c #AB9138",
"9. c #AC9938",
"0. c #BB9932",
"q. c #B39638",
"w. c #B19E3D",
"e. c #B89F39",
"r. c #BF9C3A",
"t. c #B7A037",
"y. c #B6A43D",
"u. c #BAA63E",
"i. c #BDA73D",
"p. c #C09427",
"a. c #C09428",
"s. c #C79C2F",
"d. c #C09933",
"f. c #C59C31",
"g. c #C59F32",
"h. c #C39F37",
"j. c #CBA22F",
"k. c #CBA632",
"l. c #C9A534",
"z. c #CDA937",
"x. c #C6A63E",
"c. c #CCA538",
"v. c #C8A938",
"b. c #CBAB3F",
"n. c #D4AA32",
"m. c #D3B33D",
"M. c #D8B338",
"N. c #D2B838",
"B. c #DCBD3A",
"V. c #E9BE35",
"C. c #EBCB3C",
"Z. c #9B925C",
"A. c #A6984A",
"S. c #B59E4B",
"D. c #B6A342",
"F. c #B5A344",
"G. c #B8A546",
"H. c #B8A842",
"J. c #BEAC43",
"K. c #B6A548",
"L. c #BBA64C",
"P. c #C0AB42",
"I. c #C1AC43",
"U. c #C0AE42",
"Y. c #D2AD40",
"T. c #CFB245",
"R. c #CFBB48",
"E. c #D6B740",
"W. c #D5B543",
"Q. c #D4BE45",
"!. c #D2BF5A",
"~. c #DDC84A",
"^. c #DAC552",
"/. c #D9CE51",
"(. c #DDC858",
"). c #DAD05C",
"_. c #E7C544",
"`. c #EACB47",
"'. c #E8CC47",
"]. c #E9C649",
"[. c #EFD147",
"{. c #EDD246",
"}. c #EFD445",
"|. c #F0D442",
" X c #F1DD4D",
".X c #F6DC4D",
"XX c #E3CD50",
"oX c #EBCF51",
"OX c #F6DD50",
"+X c #F2DB55",
"@X c #F1D856",
"#X c #F1D957",
"$X c #F5DF57",
"%X c #F2E04F",
"&X c #F7E457",
"*X c #F5E059",
"=X c #F6E05A",
"-X c #F6E25E",
";X c #EFD860",
":X c #F1DB62",
">X c #F2DD63",
",X c #F8E367",
"<X c #F9E669",
"1X c #F7EF72",
"2X c None",
/* pixels */
"2X2X2X2X2XI t.P.I.G...2X2X2X2X2X",
"2X2X2XY N..X+X-XOX$X,X!. .2X2X2X",
"2X2X! C.{.R.9._ { w.^.<X:XA.2X2X",
"2X^ m.'.) s j n n J G F.;X1XZ.2X",
"2Xq.E.E 3 d m P Q 3.S.] K.>X).2X",
"~ W.e.# a c V.b D [.L.` H (.*X[ ",
"2.T.W $ p >.l.X.i.v.XXA D D.#Xy.",
"8.x.g 2 y M.R =.k.T }.4.M 6.@XU.",
"1.b.f ; O.z.4 r v 5 B.Q.h <.oXJ.",
"' h.S % g.+.& @ , w &.|.F u.=XH.",
"V d.$.% > - O 6 7 q e N k ~.&X} ",
"2X,.;.x X o : 1 8 9 0 < 5.%X/.2X",
"2XC :.-.z .   O = * + %.`. X| 2X",
"2X2XB a.p.o.K t i L 0._.].7.2X2X",
"2X2X2Xl *.j.n.s.f.c.Y.r./ 2X2X2X",
"2X2X2X2X2Xu U @.#.( Z 2X2X2X2X2X"
};
